<?xml version="1.0" encoding="UTF-8"?>
<!-- Created with Inkscape (http://www.inkscape.org/) -->
<svg width="210mm" height="216.73mm" version="1.1" viewBox="0 0 210 216.73" xml:space="preserve" xmlns="http://www.w3.org/2000/svg"><g transform="translate(0 -44.82)"><path transform="scale(.26458)" d="m169.07 868.08h24.151v24.094h-24.151z" fill="#fff"/><path d="m139.71 44.82v6.3749h6.3906v-6.3749zm51.124 0v6.3749h6.3906v-6.3749zm0 6.3749h-6.3906v6.3749h6.3906zm-6.3906 6.3749h-6.3906v6.3749h6.3906zm-6.3906 6.3749h-6.39v6.3749h6.39zm-31.952-6.3749v6.3749h6.3906v-6.3749zm-31.952 6.3749v6.3749h6.39v-6.3749zm12.781 6.3749v6.3749h6.3906v-6.3749zm25.562 0v6.3749h6.39v-6.3749zm-12.781 6.3749v6.3749h6.39v-6.3749zm-63.021 6.3587v6.3749l37.459 0.01629v-6.3749zm37.459 6.3912v6.3749h12.781v-6.3749zm12.781 6.3749v6.3749h19.171v-6.3749zm-50.24-6.3912h-6.3906v6.3749h6.3906zm-6.3906 6.3749h-6.39v19.125h-19.171v25.5h-12.781v6.3749h-19.171v12.75h-6.39v12.75h-6.3906v51h6.3906v12.75h6.39v12.751l19.171-5e-3v6.38l12.781 7e-3v6.3681h44.732v-6.375h12.781v-6.3749h19.171v-12.75h6.3906v-12.751h6.39v-51h-6.3906v-12.75h-6.39v-12.75h-19.171v-6.3749h-12.781v-25.5h-19.171zm107.75-12.734v6.3749h6.3906v-6.3749zm12.781 0v6.3749h6.3906v-6.3749zm12.781 0v6.3749h6.3906v-6.3749zm-57.514 6.3749v6.3749h19.171v-6.3749zm0 6.3749v6.3749zm31.952 12.751v6.3749h6.3906v-6.3749zm6.3906 6.3749v6.3749h6.3906v-6.3749zm6.3906 6.3749v6.375h6.3906v-6.375zm6.3906 6.375v6.3749h6.39v-6.3749zm-57.514-12.75v6.3749h6.39v-6.3749zm19.171 0v6.3749h6.3906v-6.3749zm-25.561 6.3749v6.375h6.39v-6.375zm0 6.375h-6.3906v6.3749h6.3906zm25.561 0v6.3749h6.3906v-6.3749zm0 12.75v6.3749h6.3906v-6.3749zm-133.31 31.858h6.39v6.3749h-6.39zm-6.3862 12.751h12.776v25.5h-12.781zm12.776 31.875c2.1302 6e-3 4.2604-9e-3 6.3906 1e-3v6.3736h-6.3906zm12.781 12.75h6.39v6.375h-6.39z"/><g fill="#fff"><path transform="scale(.26458)" d="m72.475 699.42h48.288l-0.042 96.67-48.263-0.29276 0.01657-96.377z"/><path transform="scale(.26458)" d="m96.611 651.22h24.151v24.094h-24.151z"/><path transform="scale(.26458)" d="m120.76 819.89 24.153 4e-3v24.091l-24.153-1e-3z"/></g></g></svg>
